<?xml version="1.0" encoding="utf-8"?>
<!-- Svg Vector Icons : http://www.onlinewebfonts.com/icon -->
<!DOCTYPE svg PUBLIC "-//W3C//DTD SVG 1.1//EN" "http://www.w3.org/Graphics/SVG/1.1/DTD/svg11.dtd">
<svg version="1.1" xmlns="http://www.w3.org/2000/svg" xmlns:xlink="http://www.w3.org/1999/xlink" x="0px" y="0px" viewBox="0 0 1000 1000" enable-background="new 0 0 1000 1000" xml:space="preserve">
<metadata> Svg Vector Icons : http://www.onlinewebfonts.com/icon </metadata>
<g><g><g><path d="M452.3,533.3c15.1,6,37.8,7,50.2,7c10.6,0,28.5-0.8,43-4.7c-4.3,26.3-7.6,53.7-9.1,81.1c0,0.1-0.1,0.1-0.2,0.2c-4.8,2.8-22.4,7-49.7,7c-27.4,0-44.9-4.3-49.8-7c-0.2-0.5-0.7-0.7-0.9-1.2C440.6,585.5,446.3,558.1,452.3,533.3z"/><path d="M483.7,431.6c14.3,8.2,39.5,9.2,49.3,9.2c6.7,0,20.7-0.5,33.4-3.3c-5.8,22-11.6,46.9-16.6,73.4c-0.5,0.8-1.3,1.3-1.7,2.2c-4.5,2.6-20.7,6.8-45.6,6.8c-24.3,0-39.9-3.9-45-6.5C466,481.6,475,454.2,483.7,431.6z"/><path d="M486.4,644.2c14.5,0,34.2-1.1,49-5.5c-0.7,35.7,1.9,71,9.4,103.5c-0.1,0.3-0.4,0.5-0.6,0.8c-5.2,3.4-26.3,9-60.7,9c-34.4,0-55.6-5.5-60.7-9c-0.1-0.4-0.4-0.5-0.5-0.8c2.3-37.9,5.9-73,10.5-105.1C448.8,643.2,473.2,644.2,486.4,644.2z"/><path d="M420.9,764.3c18.7,6.9,47.1,8,62.6,8c16.7,0,48.6-1.2,66.9-9.7c9,28.7,22.6,54.5,42,75.6c-6.5,6.5-34.7,18.2-85.9,18.2c-57.7,0-86.3-14.8-87.4-20.4C419.1,811,419.9,787.3,420.9,764.3z"/><path d="M636.7,347.1c-16.6,0-31.7-9.3-39.3-24.4c-3.2-6.4-4.9-13.1-4.9-19.7c0-12.6,5.3-24.3,14.9-32.8c8.2-7.3,18.6-11.3,29.2-11.3c24.3,0,44.2,19.8,44.2,44.1C680.9,327.3,661,347.1,636.7,347.1z"/><path d="M488.9,276.6c-120.2,0-219.7,109.9-262.7,166.2c29.9-147.8,218.2-239.2,220.3-240.2c3.9-1.9,6.3-6.1,5.7-10.4c-0.5-4.3-3.7-7.9-8-8.8c-139.3-29.5-226.1,14.7-269.5,48.8c18.7-38.7,46.3-67.2,82.6-85c111.7-54.9,270.3,8.3,271.9,8.9c4.1,1.7,8.9,0.4,11.8-3.1c2.8-3.5,3-8.5,0.4-12.2c-50-72.3-97.6-107.6-134.6-124.6c79.5-1.8,140.9,14.2,178.7,47.1c40.2,35,41.1,76.5,41.1,78.2c0,4.1,2.5,7.8,6.3,9.4c3.8,1.6,8.2,0.7,11.1-2.2c55.7-55.7,111.8-80.3,166.2-73.3c50.2,6.5,90.8,39,117.8,67.8c-98.4-39.9-214.6,30.2-220.4,33.7c-3.9,2.4-5.7,7.1-4.5,11.5c1.3,4.4,5.2,7.4,9.8,7.4c128.2,0,213.5,28.1,253.4,83.5c15.8,21.9,22,45.3,23.7,65.5c-5.5-8.9-12.3-17-20.8-24.1c-64.8-54.9-194.9-34-200.4-33c-5.2,0.9-8.9,5.6-8.5,10.9c0.5,5.3,4.9,9.3,10.1,9.3c25.6,0,46.8,9,64.9,27.5c41.3,42.3,54.2,123.1,58.2,173.7c-49.6-64.9-167.7-158.2-196.4-180.4c-0.4-0.3-0.8-0.4-1.3-0.6c3.3-7.8,5.3-16.3,5.3-25.3c0-35.6-29-64.5-64.5-64.5c-11.7,0-23.2,3.3-33.3,9.4c-12.1-16-30.7-25.6-51-25.6C520.4,222.3,493.9,245.9,488.9,276.6z"/><path d="M552.4,242.7c14.2,0,27.3,6.9,35.5,18.3c-0.7,0.8-1.1,1.6-1.8,2.4c-1,1.3-1.9,2.6-2.8,4c-1.5,2.2-2.9,4.5-4,6.8c-0.7,1.4-1.5,2.8-2.1,4.3c-1.1,2.6-2,5.3-2.7,8c-0.3,1.3-0.8,2.6-1.1,3.9c-0.8,4.1-1.3,8.3-1.3,12.5c0,4.4,0.6,8.8,1.5,13.1c0.3,1.2,0.6,2.4,1,3.6c0.4,1.4,0.6,2.9,1.2,4.3c-7.1,4.6-15.2,7-23.5,7c-24.3,0-44.1-19.8-44.1-44.1C508.2,262.5,528.1,242.7,552.4,242.7z"/><path d="M552.4,351.4c11.7,0,23.2-3.3,33.3-9.4c2.2,2.9,4.6,5.6,7.2,8.1c-3.4,9.6-11.2,32.4-20.1,63.7c0,0.1-0.2,0.2-0.2,0.3c-4,2.5-18.1,6.4-39.6,6.4c-21.6,0-35.7-3.9-39.7-6.4c-0.3-0.9-1.1-1.4-1.6-2.2c16-37.9,29.6-59.5,34.1-66.3C534,349.2,542.9,351.4,552.4,351.4z"/><path d="M399,808.7c-0.1,9-0.3,18.1-0.3,27.3c0,28,55.9,40.7,107.8,40.7c51.9,0,107.8-12.7,107.8-40.7c0-1.3-0.3-2.6-0.8-3.9c-0.5-1.3-1.3-2.4-2.2-3.4c-5.5-5.5-10.4-11.7-15-18.1c205.4,19.4,355.1,90.4,366.7,173H10C22.2,898.7,184.9,824.6,399,808.7z"/></g></g><g></g><g></g><g></g><g></g><g></g><g></g><g></g><g></g><g></g><g></g><g></g><g></g><g></g><g></g><g></g></g>
</svg>